# xmcd CD database file
#
# Track frame offsets:
#	150
#	15151
#	30199
#	45204
#	57209
#	66975
#	81460
#	92929
#	106198
#	119879
#	134081
#	147670
#	159916
#	173524
#	184561
#	197172
#	209597
#	223641
#	236561
#	250375
#	263941
#	277549
#	288657
#	302643
#	317391
#
# Disc length: 4454 seconds
#
# Revision: 0
# Processed by: cddbd v1.5.2PL0 Copyright (c) Steve Scherf et al.
# Submitted via: CDex 1.51
#
DISCID=67116419
DTITLE=Peggy Lee - Greatest Hits
DYEAR=2009
DGENRE=Jazz
TTITLE0=Fever
TTITLE1=Mr. Wonderful
TTITLE2=Lover
TTITLE3=He's A Tramp
TTITLE4=The Siamese Cat Song
TTITLE5=Baubles, Bangles and Beads
TTITLE6=I Don't Want To Play In Your Yard
TTITLE7=Manana
TTITLE8=Golden Earrings
TTITLE9=Don't Smoke In Bed
TTITLE10=Johnny Guitar
TTITLE11=Riders In The Sky
TTITLE12=Love You Didn't Do Right By Me
TTITLE13=Sisters   with Trudy Stevens
TTITLE14=The Old Master Painter   with Mel Torme
TTITLE15=Caramba! It's The Samba
TTITLE16=Waiting For The Train To Come In
TTITLE17=It's A Good Day
TTITLE18=Chi-Baba, Chi-Baba
TTITLE19=It's All Over Now
TTITLE20=I'll Dance At Your Wedding
TTITLE21=Why Don't You Do Right?
TTITLE22=Every Thing I Love
TTITLE23=How Long Has This Been Going On?
TTITLE24=Bye, Bye Blackbird
EXTD=YEAR: 2009
EXTT0=
EXTT1=
EXTT2=
EXTT3=
EXTT4=
EXTT5=
EXTT6=
EXTT7=
EXTT8=
EXTT9=
EXTT10=
EXTT11=
EXTT12=
EXTT13=
EXTT14=
EXTT15=
EXTT16=
EXTT17=
EXTT18=
EXTT19=
EXTT20=
EXTT21=
EXTT22=
EXTT23=
EXTT24=
PLAYORDER=
